<svg width="75" height="59" viewBox="0 0 75 59" fill="none" xmlns="http://www.w3.org/2000/svg">
<path d="M37.8899 24.9372C37.8275 24.8575 37.7477 24.793 37.6567 24.7486C37.5657 24.7043 37.4657 24.6812 37.3645 24.6812C37.2632 24.6812 37.1633 24.7043 37.0722 24.7486C36.9812 24.793 36.9015 24.8575 36.839 24.9372L27.498 36.7553C27.421 36.8537 27.3732 36.9717 27.3601 37.0959C27.347 37.2201 27.3691 37.3455 27.424 37.4577C27.4788 37.57 27.5641 37.6645 27.6701 37.7305C27.7761 37.7966 27.8985 37.8315 28.0234 37.8312H34.1868V58.0479C34.1868 58.4149 34.4871 58.7151 34.8541 58.7151H39.8582C40.2252 58.7151 40.5254 58.4149 40.5254 58.0479V37.8395H46.7055C47.2643 37.8395 47.5729 37.1973 47.231 36.7637L37.8899 24.9372Z" fill="#6C6C6C"/>
<path d="M62.3348 17.2392C58.515 7.16425 48.782 0 37.3809 0C25.9798 0 16.2468 7.15591 12.4269 17.2309C5.27936 19.1075 0 25.6212 0 33.3609C0 42.5768 7.4645 50.0413 16.6721 50.0413H20.0165C20.3835 50.0413 20.6838 49.7411 20.6838 49.3741V44.37C20.6838 44.003 20.3835 43.7028 20.0165 43.7028H16.6721C13.8615 43.7028 11.2176 42.5852 9.24931 40.5585C7.28935 38.5402 6.24683 35.8213 6.33857 33.0023C6.41363 30.8004 7.16425 28.7321 8.52371 26.989C9.91652 25.2125 11.8681 23.9198 14.0366 23.3443L17.1975 22.5186L18.3568 19.4661C19.0741 17.5645 20.0749 15.788 21.3343 14.1784C22.5776 12.583 24.0503 11.1805 25.7046 10.0166C29.1324 7.60628 33.1691 6.33023 37.3809 6.33023C41.5927 6.33023 45.6294 7.60628 49.0572 10.0166C50.7169 11.1842 52.1848 12.5854 53.4275 14.1784C54.6868 15.788 55.6877 17.5728 56.4049 19.4661L57.5559 22.5103L60.7085 23.3443C65.2289 24.562 68.3898 28.6737 68.3898 33.3609C68.3898 36.1215 67.3139 38.7237 65.3623 40.6753C64.4052 41.638 63.2667 42.4012 62.0126 42.9209C60.7585 43.4406 59.4138 43.7063 58.0563 43.7028H54.7119C54.3449 43.7028 54.0446 44.003 54.0446 44.37V49.3741C54.0446 49.7411 54.3449 50.0413 54.7119 50.0413H58.0563C67.2639 50.0413 74.7284 42.5768 74.7284 33.3609C74.7284 25.6295 69.4657 19.1241 62.3348 17.2392Z" fill="#6C6C6C"/>
</svg>
